<svg xmlns="http://www.w3.org/2000/svg" viewBox="0 0 512 512" role="img" aria-label="Zervia app icon">
  <rect width="512" height="512" rx="112" fill="#F2F0DF"/>
  <g transform="translate(30 22) scale(5.2)">
    <path fill="#008000" d="M 51.455499,83.610541 C 46.460887,82.005792 41.514673,75.956624 35.822777,64.491888 34.995354,62.825275 33.907872,60.63509 33.406149,59.624808 l -0.912223,-1.836877 -0.835651,1.376403 C 26.688579,67.349934 18.64589,71.168454 10.353193,69.279593 4.2138647,67.881214 -0.36465401,64.521271 -3.1725805,59.353717 -7.1634211,52.009191 -6.347799,43.586746 -1.0290066,37.218306 c 2.2130012,-2.649731 5.0002641,-4.598094 8.99749,-6.289461 7.1183026,-3.012005 14.2672216,-2.65209 21.0964446,1.06211 2.779574,1.511723 6.686147,4.832148 8.407621,7.146127 0.676573,0.909441 1.338654,1.593119 1.471288,1.519285 0.132635,-0.07384 2.049609,-3.960113 4.259944,-8.636172 8.565035,-18.119712 12.068321,-24.4297853 16.935402,-30.5038374 1.934265,-2.41393674 5.416031,-5.3671426 7.295381,-6.1878829 6.49497,-2.8364507 10.534272,1.4414652 11.599852,12.2850904 0.91759,9.3376299 -0.11926,23.6644719 -2.504976,34.6129149 -1.333879,6.121386 -4.216362,16.106478 -5.384579,18.652499 -0.147052,0.320488 -0.740631,1.748827 -1.319064,3.174087 -2.535118,6.246533 -6.486019,13.611096 -8.672704,16.166101 -2.752618,3.21626 -6.339019,4.470471 -9.697594,3.391374 z M 22.050226,65.060464 c 3.185037,-1.457121 6.690953,-4.80082 8.559232,-8.163201 0.911275,-1.640039 0.847726,-1.958604 -1.086873,-5.448425 -3.212928,-5.795797 -6.525562,-8.786618 -10.868414,-9.812581 -3.491416,-0.824818 -7.300012,0.250523 -10.3472554,2.921505 -2.7885703,2.444249 -4.1579418,5.344236 -4.1521017,8.79311 0.00774,4.588445 2.3243754,8.503133 6.4394421,10.881612 3.599353,2.080402 8.019992,2.399904 11.45597,0.82798 z M 62.366379,57.08586 c 1.82559,-0.767022 4.467019,-2.837418 5.964954,-4.675432 3.747531,-4.598341 6.029099,-12.094068 6.029099,-19.807646 0,-4.608374 -0.814121,-7.520745 -2.868861,-10.262831 -3.726969,-4.973703 -10.050364,-5.271722 -16.33171,-0.769706 -4.501019,3.226007 -9.432511,9.931216 -13.4417,18.276299 l -1.521883,3.167784 0.668911,1.187051 c 1.321652,2.34541 4.807933,6.824579 6.769709,8.697713 2.276987,2.174101 4.499932,3.617954 6.832958,4.438159 2.27231,0.79886 5.655071,0.691195 7.898523,-0.251391 z"/>
  </g>
</svg>