<svg xmlns="http://www.w3.org/2000/svg" viewBox="0 0 512 512" role="img" aria-label="Zervia app icon">
  <rect width="512" height="512" rx="112" fill="#D4D2BA" />
  <g transform="translate(42 62) scale(0.72)">
    <path
      fill="#10A24A"
      fill-rule="evenodd"
      d="M177 332C123 387 49 365 34 296C17 221 81 178 148 184C208 189 248 235 271 278C287 308 303 339 323 349C339 358 360 355 377 331C403 295 422 216 435 152C449 82 469 31 523 20C572 11 592 56 590 126C588 224 560 346 523 447C498 516 453 547 404 541C350 534 317 490 287 432C259 379 235 318 206 275C188 247 165 233 141 238C111 244 87 277 94 310C102 345 145 360 177 332ZM154 370C111 370 75 337 75 296C75 255 111 222 154 222C198 222 233 255 233 296C233 337 198 370 154 370ZM434 349C480 349 517 308 517 259C517 211 480 171 434 171C387 171 350 211 350 259C350 308 387 349 434 349Z"
      clip-rule="evenodd"
    />
  </g>
</svg>

